# Blender v2.76 (sub 0) OBJ File: 'cono.blend'
# www.blender.org
mtllib cono.mtl
o Cone
v -0.275610 4.137531 2.621427
v -0.425432 -0.246448 -0.056327
v 0.170856 4.136105 2.560876
v 0.596998 4.142255 2.414707
v 0.986440 4.155745 2.188535
v 1.324214 4.176056 1.891052
v 1.597342 4.202408 1.533690
v 1.795326 4.233788 1.130183
v 1.910559 4.268990 0.696037
v 1.938612 4.306662 0.247937
v 1.878406 4.345355 -0.196898
v 1.732256 4.383583 -0.621374
v 1.505779 4.419877 -1.009176
v 1.207676 4.452842 -1.345404
v 0.849405 4.481211 -1.617135
v 0.444734 4.503894 -1.813926
v 0.009213 4.520019 -1.928216
v -0.440420 4.528966 -1.955613
v -0.886886 4.530392 -1.895062
v -1.313028 4.524242 -1.748892
v -1.702470 4.510753 -1.522720
v -2.040244 4.490441 -1.225236
v -2.313372 4.464089 -0.867875
v -2.511356 4.432710 -0.464367
v -2.626588 4.397507 -0.030221
v -2.654640 4.359836 0.417880
v -2.594434 4.321142 0.862715
v -2.448284 4.282914 1.287190
v -2.221806 4.246620 1.674993
v -1.923703 4.213655 2.011220
v -1.565432 4.185287 2.282950
v -1.160760 4.162603 2.479742
v -0.725239 4.146479 2.594031
vn -0.235500 -0.513800 0.825000
vn 0.113100 -0.520700 0.846200
vn -0.399900 -0.506200 0.764100
vn -0.549300 -0.496200 0.672400
vn -0.677700 -0.484200 0.553400
vn -0.780400 -0.470600 0.411700
vn -0.853300 -0.456100 0.252700
vn -0.893700 -0.441000 0.082600
vn -0.900000 -0.426100 -0.092200
vn -0.871900 -0.411800 -0.264800
vn -0.810600 -0.398800 -0.428800
vn -0.718400 -0.387500 -0.577700
vn -0.598900 -0.378300 -0.705800
vn -0.456600 -0.371700 -0.808300
vn -0.296900 -0.367900 -0.881200
vn -0.126200 -0.367000 -0.921600
vn 0.049200 -0.369000 -0.928100
vn 0.222400 -0.373900 -0.900400
vn 0.386900 -0.381500 -0.839500
vn 0.536200 -0.391500 -0.747800
vn 0.664600 -0.403500 -0.628800
vn 0.767300 -0.417000 -0.487100
vn 0.840200 -0.431600 -0.328200
vn 0.880600 -0.446700 -0.158000
vn 0.886900 -0.461600 0.016700
vn 0.858900 -0.475900 0.189400
vn 0.797600 -0.488900 0.353300
vn 0.705400 -0.500200 0.502200
vn 0.585800 -0.509300 0.630400
vn 0.443500 -0.516000 0.732900
vn -0.062300 -0.518700 0.852700
vn 0.283900 -0.519800 0.805700
vn 0.014700 0.996300 0.084700
usemtl Material.004
s off
f 32//1 2//1 33//1
f 1//2 2//2 3//2
f 31//3 2//3 32//3
f 30//4 2//4 31//4
f 29//5 2//5 30//5
f 28//6 2//6 29//6
f 27//7 2//7 28//7
f 26//8 2//8 27//8
f 25//9 2//9 26//9
f 24//10 2//10 25//10
f 23//11 2//11 24//11
f 22//12 2//12 23//12
f 21//13 2//13 22//13
f 20//14 2//14 21//14
f 19//15 2//15 20//15
f 18//16 2//16 19//16
f 17//17 2//17 18//17
f 16//18 2//18 17//18
f 15//19 2//19 16//19
f 14//20 2//20 15//20
f 13//21 2//21 14//21
f 12//22 2//22 13//22
f 11//23 2//23 12//23
f 10//24 2//24 11//24
f 9//25 2//25 10//25
f 8//26 2//26 9//26
f 7//27 2//27 8//27
f 6//28 2//28 7//28
f 5//29 2//29 6//29
f 4//30 2//30 5//30
f 33//31 2//31 1//31
f 3//32 2//32 4//32
f 1//33 3//33 4//33 5//33 6//33 7//33 8//33 9//33 10//33 11//33 12//33 13//33 14//33 15//33 16//33 17//33 18//33 19//33 20//33 21//33 22//33 23//33 24//33 25//33 26//33 27//33 28//33 29//33 30//33 31//33 32//33 33//33
